<svg xmlns="http://www.w3.org/2000/svg" viewBox="0 0 512 512">
  <rect width="512" height="512" rx="120" fill="#00CC66" />
  <path d="M256 96C167.6 96 96 167.6 96 256c0 88.4 71.6 160 160 160s160-71.6 160-160c0-88.4-71.6-160-160-160zm0 288c-70.6 0-128-57.4-128-128 0-70.6 57.4-128 128-128 70.6 0 128 57.4 128 128 0 70.6-57.4 128-128 128zm-32-192c-17.6 0-32 14.4-32 32s14.4 32 32 32 32-14.4 32-32-14.4-32-32-32zm64 64c-17.6 0-32 14.4-32 32s14.4 32 32 32 32-14.4 32-32-14.4-32-32-32z" fill="#ffffff"/>
  <path fill="#ffffff" d="M256 128c-70.7 0-128 57.3-128 128 0 70.7 57.3 128 128 128 70.7 0 128-57.3 128-128 0-70.7-57.3-128-128-128zm0 224c-53 0-96-43-96-96s43-96 96-96 96 43 96 96-43 96-96 96z"/>
</svg>
